Coordinates
version=1
nRows=17
nColumns=33
inDegrees=yes

Units are S.I. units (second, meters, Newtons, ...)
Angles are in degrees.

endheader
time	ground_thorax_rot_x	ground_thorax_rot_y	ground_thorax_rot_z	ground_thorax_tx	ground_thorax_ty	ground_thorax_tz	clav_prot_r	clav_elev_r	scapula_abduction_r	scapula_elevation_r	scapula_upward_rot_r	scapula_winging_r	shoulder_elv_r	plane_of_elev_r	axial_rot_r	elbow_flexion_r	pro_sup_r	wrist_flex_r	wrist_dev_r	clav_prot_l	clav_elev_l	scapula_abduction_l	scapula_elevation_l	scapula_upward_rot_l	scapula_winging_l	shoulder_elv_l	plane_of_elev_l	axial_rot_l	elbow_flexion_l	pro_sup_l	wrist_flex_l	wrist_dev_l
      7.66000000	     29.43983280	     28.49184999	     37.30664842	    -48.98724701	    790.84501148	    -37.56078370	     12.07498740	     34.97629201	     24.66757934	     45.00000000	    -45.00000000	  -3682.13395448	  -2447.37996436	     22.83682172	    179.99999979	   1805.64351050	   -171.97503114	     13.42540165	     14.88857981	    -10.43739325	    -45.00000000	    -36.81936506	     45.00000000	    -45.00000000	  -1697.74379123	  -1363.73211508	     23.56912320	     21.18275213	   1789.31234938	     42.65753640	     13.16533986	    -16.73773265
      7.67000000	     29.52914458	     28.30066239	     37.05625147	    -51.64502166	    792.46000942	    -37.58488400	     12.07825451	     34.93268649	     24.62200184	     45.00000000	    -45.00000000	  -3682.28674801	  -2447.29517362	     22.86740190	    179.99999979	   1805.66041503	   -172.05179530	     13.49987736	     14.89538889	    -10.30450633	    -45.00000000	    -36.95111017	     45.00000000	    -45.00000000	  -1697.64753333	  -1363.61720590	     23.58918633	     21.18211347	   1789.31237735	     42.68470943	     13.19088806	    -16.83199599
      7.68000000	     29.67413878	     28.08636847	     36.80491295	    -54.26356369	    794.12160593	    -37.60756129	     12.02642061	     34.96567225	     24.68969410	     45.00000000	    -45.00000000	  -3682.49998132	  -2447.25591893	     22.89863633	    179.99999979	   1805.68557460	   -172.12388598	     13.60438872	     14.91259990	    -10.21223914	    -45.00000000	    -37.05284729	     45.00000000	    -45.00000000	  -1697.44399310	  -1363.55258401	     23.61037674	     21.22546373	   1789.34539293	     42.68444277	     13.24316930	    -16.97396217
      7.69000000	     29.77809983	     27.87403916	     36.49492749	    -56.83509957	    795.82814397	    -37.62883744	     12.04285025	     34.89490604	     24.61878019	     45.00000000	    -45.00000000	  -3682.68314897	  -2447.16234894	     22.94612333	    179.99999979	   1805.59902408	   -172.20454891	     13.73764139	     14.92821332	    -10.06902751	    -45.00000000	    -37.20137785	     45.00000000	    -45.00000000	  -1697.36290455	  -1363.44226097	     23.66093291	     21.19801227	   1789.34279115	     42.66835642	     13.29206945	    -17.07944546
      7.70000000	     29.88483468	     27.66970801	     36.24913256	    -59.36088444	    797.57848134	    -37.65104296	     12.02961613	     34.87010460	     24.59253019	     45.00000000	    -45.00000000	  -3682.85844694	  -2447.06072386	     22.99909695	    179.99999979	   1805.60706825	   -172.27751478	     13.85433296	     14.91913097	     -9.94794749	    -45.00000000	    -37.31921844	     45.00000000	    -45.00000000	  -1697.22861734	  -1363.34647467	     23.66952194	     21.17215793	   1789.37247858	     42.62791553	     13.32405450	    -17.18493005
      7.71000000	     29.98002993	     27.47439994	     36.00450524	    -61.84122333	    799.37095491	    -37.67602005	     12.04033485	     34.82701417	     24.57157661	     45.00000000	    -45.00000000	  -3683.02025942	  -2446.96545372	     23.02238919	    179.99999979	   1805.61053014	   -172.34602349	     13.98282312	     14.90240086	     -9.84234856	    -45.00000000	    -37.43618197	     45.00000000	    -45.00000000	  -1697.12609516	  -1363.20388235	     23.67579372	     21.18120824	   1789.36929830	     42.57035881	     13.36381741	    -17.27452565
      7.72000000	     30.13189571	     27.21231585	     35.72905295	    -64.27312074	    801.20217716	    -37.70510811	     11.98287945	     34.87073666	     24.68052719	     45.00000000	    -45.00000000	  -3683.24602400	  -2446.92154417	     23.05345576	    179.99999979	   1805.67894466	   -172.40969016	     14.14186118	     14.90498045	     -9.76062841	    -45.00000000	    -37.54756448	     45.00000000	    -45.00000000	  -1696.97130338	  -1363.16889412	     23.72558838	     21.28500053	   1789.41684704	     42.48734608	     13.43266433	    -17.42547156
      7.73000000	     30.13479180	     27.07654610	     35.54126798	    -66.66465050	    803.07672596	    -37.73910444	     12.01028626	     34.73838768	     24.54880031	     45.00000000	    -45.00000000	  -3683.33564005	  -2446.78785216	     23.05666152	    179.99999979	   1805.66171480	   -172.47220684	     14.27530628	     14.86551122	     -9.55613872	    -45.00000000	    -37.73134406	     45.00000000	    -45.00000000	  -1696.88734002	  -1362.97631060	     23.71934029	     21.26113771	   1789.37728517	     42.40230780	     13.44969216	    -17.45741546
      7.74000000	     30.23677247	     26.85998592	     35.29992686	    -69.00689785	    804.98773548	    -37.77833760	     12.02827658	     34.73384427	     24.53949736	     45.00000000	    -45.00000000	  -3683.51380359	  -2446.71839986	     23.09358247	    179.99999979	   1805.66422159	   -172.53934130	     14.44143058	     14.81931840	     -9.52300302	    -45.00000000	    -37.81022898	     45.00000000	    -45.00000000	  -1696.80632879	  -1362.82109964	     23.70773055	     21.25314748	   1789.38551259	     42.29945032	     13.48886641	    -17.54352987
      7.75000000	     30.33632496	     26.63154155	     35.07161281	    -71.30007075	    806.93390917	    -37.82298306	     11.98694067	     34.74205398	     24.62114745	     45.00000000	    -45.00000000	  -3683.70390112	  -2446.64543968	     23.10918211	    179.99999979	   1805.72801830	   -172.60867284	     14.62295724	     14.78184527	     -9.40224178	    -45.00000000	    -37.95232922	     45.00000000	    -45.00000000	  -1696.66712376	  -1362.74997133	     23.73419648	     21.40384099	   1789.40341825	     42.19009845	     13.53814996	    -17.65473190
      7.76000000	     30.37639166	     26.42547329	     34.82910832	    -73.54396024	    808.91556241	    -37.87331165	     12.00025134	     34.69536801	     24.65211923	     45.00000000	    -45.00000000	  -3683.86430406	  -2446.55475070	     23.12766047	    179.99999979	   1805.72845451	   -172.68962578	     14.80605576	     14.73818284	     -9.32589230	    -45.00000000	    -38.04427581	     45.00000000	    -45.00000000	  -1696.63611299	  -1362.65069927	     23.77923420	     21.49931113	   1789.43374867	     42.07448943	     13.58170200	    -17.75845819
      7.77000000	     30.55837506	     26.18085431	     34.54466025	    -75.73859865	    810.93129975	    -37.92935551	     12.00472747	     34.66523782	     24.65767655	     45.00000000	    -45.00000000	  -3684.06289528	  -2446.48284698	     23.17189918	    179.99999979	   1805.72560182	   -172.76546922	     15.00666014	     14.69450536	     -9.30023970	    -45.00000000	    -38.13227998	     45.00000000	    -45.00000000	  -1696.51340873	  -1362.52505324	     23.75973736	     21.46758451	   1789.45878527	     41.95921706	     13.61988918	    -17.87184163
      7.78000000	     30.60920258	     25.98304600	     34.30086863	    -77.87722072	    812.97360524	    -37.99113389	     11.97168124	     34.62026418	     24.60211583	     45.00000000	    -45.00000000	  -3684.20686540	  -2446.39561953	     23.20359979	    179.99999979	   1805.72850838	   -172.85489060	     15.19486613	     14.63564509	     -9.04896153	    -45.00000000	    -38.35875801	     45.00000000	    -45.00000000	  -1696.38623436	  -1362.41919606	     23.83090673	     21.70271373	   1789.42911991	     41.86468031	     13.63526297	    -17.94646832
      7.79000000	     30.78498577	     25.66885383	     34.00494246	    -79.96627832	    815.04361297	    -38.05874470	     11.93531324	     34.63274824	     24.72529025	     45.00000000	    -45.00000000	  -3684.42773416	  -2446.34031393	     23.27267076	    179.99999979	   1805.71105383	   -172.95354443	     15.42631861	     14.58869828	     -9.02098004	    -45.00000000	    -38.40583768	     45.00000000	    -45.00000000	  -1696.27493937	  -1362.32523575	     23.88327766	     21.84075873	   1789.45842406	     41.76779656	     13.68309763	    -18.11447751
      7.80000000	     30.84548037	     25.48288271	     33.76451098	    -82.00189141	    817.13239065	    -38.13224480	     11.91096516	     34.57592883	     24.67149222	     45.00000000	    -45.00000000	  -3684.58862132	  -2446.20882908	     23.30894523	    179.99999979	   1805.73047401	   -173.05313299	     15.60601724	     14.52848130	     -8.76647506	    -45.00000000	    -38.58276680	     45.00000000	    -45.00000000	  -1696.13097123	  -1362.27644032	     23.98894656	     22.05542955	   1789.47091098	     41.69107063	     13.69598200	    -18.24573356
      7.81000000	     30.94093169	     25.25123676	     33.54047796	    -83.98974489	    819.23718871	    -38.21193878	     11.94040612	     34.54275195	     24.71459816	     45.00000000	    -45.00000000	  -3684.74866812	  -2446.14594651	     23.32014607	    179.99999979	   1805.73180354	   -173.15075919	     15.77158656	     14.45586334	     -8.83875150	    -45.00000000	    -38.60941754	     45.00000000	    -45.00000000	  -1696.13226539	  -1362.08233226	     23.94003698	     22.08936379	   1789.50563284	     41.61975453	     13.67880424	    -18.37340081
      7.82000000	     31.01376305	     25.04099283	     33.32263032	    -85.92794491	    821.34776095	    -38.29829783	     11.91445873	     34.51271214	     24.70196477	     45.00000000	    -45.00000000	  -3684.90721358	  -2446.06055025	     23.34754112	    179.99999979	   1805.73293554	   -173.25324482	     15.95045919	     14.39258108	     -8.63472852	    -45.00000000	    -38.79896204	     45.00000000	    -45.00000000	  -1695.99206276	  -1362.00693498	     24.02173826	     22.28646187	   1789.51238769	     41.57256599	     13.67429223	    -18.52559457
